<svg width="52" height="56" viewBox="0 0 52 56" fill="none" xmlns="http://www.w3.org/2000/svg">
<g filter="url(#filter0_d_23_148)">
<circle cx="26" cy="26" r="22" fill="var(--secondary-color)"/>
</g>
<circle cx="26" cy="26" r="21.5" stroke="var(--secondary-color)"/>
<path fill-rule="evenodd" clip-rule="evenodd" d="M40.485 41.377C44.573 37.5248 47.125 32.0604 47.125 26C47.125 14.333 37.667 4.875 26 4.875C14.333 4.875 4.875 14.333 4.875 26C4.875 32.0604 7.42701 37.5248 11.515 41.377C15.2969 44.9409 20.3934 47.125 26 47.125C31.6066 47.125 36.7031 44.9409 40.485 41.377ZM13.3144 38.5933C16.2925 34.8786 20.8685 32.5 26 32.5C31.1315 32.5 35.7075 34.8786 38.6856 38.5933C35.4473 41.8552 30.9595 43.875 26 43.875C21.0405 43.875 16.5527 41.8552 13.3144 38.5933ZM34.125 19.5C34.125 23.9873 30.4873 27.625 26 27.625C21.5127 27.625 17.875 23.9873 17.875 19.5C17.875 15.0127 21.5127 11.375 26 11.375C30.4873 11.375 34.125 15.0127 34.125 19.5Z" fill="var(--primary-color)"/>
<defs>
<filter id="filter0_d_23_148" x="0" y="4" width="52" height="52" filterUnits="userSpaceOnUse" color-interpolation-filters="sRGB">
<feFlood flood-opacity="0" result="BackgroundImageFix"/>
<feColorMatrix in="SourceAlpha" type="matrix" values="0 0 0 0 0 0 0 0 0 0 0 0 0 0 0 0 0 0 127 0" result="hardAlpha"/>
<feOffset dy="4"/>
<feGaussianBlur stdDeviation="2"/>
<feComposite in2="hardAlpha" operator="out"/>
<feColorMatrix type="matrix" values="0 0 0 0 0 0 0 0 0 0 0 0 0 0 0 0 0 0 0.25 0"/>
<feBlend mode="normal" in2="BackgroundImageFix" result="effect1_dropShadow_23_148"/>
<feBlend mode="normal" in="SourceGraphic" in2="effect1_dropShadow_23_148" result="shape"/>
</filter>
</defs>
</svg>
